<svg xmlns="http://www.w3.org/2000/svg" xmlns:xlink="http://www.w3.org/1999/xlink" width="500" zoomAndPan="magnify" viewBox="0 0 375 374.999991" height="500" preserveAspectRatio="xMidYMid meet" version="1.0"><defs><clipPath id="ffb686049c"><path d="M 72.816406 92 L 302.316406 92 L 302.316406 257 L 72.816406 257 Z M 72.816406 92 " clip-rule="nonzero"/></clipPath></defs><rect x="-37.5" width="450" fill="#ffffff" y="-37.499999" height="449.999989" fill-opacity="1"/><rect x="-37.5" width="450" fill="#023047" y="-37.499999" height="449.999989" fill-opacity="1"/><g clip-path="url(#ffb686049c)"><path fill="#fb8500" d="M 297.363281 97.234375 C 303.761719 103.632812 303.761719 114.027344 297.363281 120.425781 L 166.300781 251.488281 C 159.898438 257.886719 149.507812 257.886719 143.109375 251.488281 L 77.578125 185.957031 C 71.175781 179.558594 71.175781 169.164062 77.578125 162.765625 C 83.976562 156.367188 94.367188 156.367188 100.769531 162.765625 L 154.730469 216.675781 L 274.222656 97.234375 C 280.621094 90.835938 291.015625 90.835938 297.414062 97.234375 Z M 297.363281 97.234375 " fill-opacity="1" fill-rule="nonzero"/></g></svg>